<svg xmlns="http://www.w3.org/2000/svg" width="512" height="512" viewBox="0 0 512 512">
  <defs>
    <!-- Neon night gradient background -->
    <radialGradient id="bg" cx="50%" cy="35%" r="75%">
      <stop offset="0%" stop-color="#0b1a3a"/>
      <stop offset="60%" stop-color="#0a0f25"/>
      <stop offset="100%" stop-color="#060914"/>
    </radialGradient>

    <!-- Neon gradients -->
    <linearGradient id="paddleL" x1="0" y1="0" x2="1" y2="0">
      <stop offset="0%" stop-color="#21d4fd"/>
      <stop offset="100%" stop-color="#b721ff"/>
    </linearGradient>
    <linearGradient id="paddleR" x1="0" y1="0" x2="1" y2="0">
      <stop offset="0%" stop-color="#ff6b6b"/>
      <stop offset="100%" stop-color="#ffd93d"/>
    </linearGradient>
    <radialGradient id="ballGrad" cx="50%" cy="50%" r="60%">
      <stop offset="0%" stop-color="#fff89a"/>
      <stop offset="60%" stop-color="#ffe66d"/>
      <stop offset="100%" stop-color="#ffc83d"/>
    </radialGradient>

    <!-- Soft outer glow -->
    <filter id="glow" x="-50%" y="-50%" width="200%" height="200%">
      <feGaussianBlur stdDeviation="4" result="b"/>
      <feMerge><feMergeNode in="b"/><feMergeNode in="SourceGraphic"/></feMerge>
    </filter>

    <!-- Pixel-step shape-rendering -->
    <style>
      .pixel { shape-rendering: crispEdges; }
    </style>
  </defs>

  <!-- Background + vignette -->
  <rect width="512" height="512" fill="url(#bg)"/>
  <rect width="512" height="512" fill="transparent" stroke="rgba(255,255,255,0.06)" stroke-width="2" rx="32"/>

  <!-- Center dashed net (square dashes) -->
  <g transform="translate(256,48)" filter="url(#glow)">
    <g fill="none" stroke="#2a9df4" stroke-width="8" stroke-linecap="square">
      <!-- build dashed line as boxes for crisp edges -->
      <g class="pixel">
        <!-- 16px gaps; 24px dashes -->
        <!-- repeat downwards -->
        <rect x="-4" y="0"   width="8" height="24" fill="#93c5fd"/>
        <rect x="-4" y="40"  width="8" height="24" fill="#93c5fd"/>
        <rect x="-4" y="80"  width="8" height="24" fill="#93c5fd"/>
        <rect x="-4" y="120" width="8" height="24" fill="#93c5fd"/>
        <rect x="-4" y="160" width="8" height="24" fill="#93c5fd"/>
        <rect x="-4" y="200" width="8" height="24" fill="#93c5fd"/>
        <rect x="-4" y="240" width="8" height="24" fill="#93c5fd"/>
        <rect x="-4" y="280" width="8" height="24" fill="#93c5fd"/>
        <rect x="-4" y="320" width="8" height="24" fill="#93c5fd"/>
        <rect x="-4" y="360" width="8" height="24" fill="#93c5fd"/>
      </g>
    </g>
  </g>

  <!-- Left paddle (neon cyan→violet) -->
  <g filter="url(#glow)">
    <rect class="pixel" x="56" y="156" width="24" height="200" rx="3" fill="url(#paddleL)"/>
    <!-- subtle inner highlight -->
    <rect class="pixel" x="60" y="160" width="4" height="192" fill="rgba(255,255,255,0.25)"/>
  </g>

  <!-- Right paddle (neon red→gold) -->
  <g filter="url(#glow)">
    <rect class="pixel" x="432" y="156" width="24" height="200" rx="3" fill="url(#paddleR)"/>
    <rect class="pixel" x="452" y="160" width="4" height="192" fill="rgba(255,255,255,0.18)"/>
  </g>

  <!-- Ball -->
  <g filter="url(#glow)">
    <rect class="pixel" x="248" y="244" width="16" height="16" fill="url(#ballGrad)"/>
    <!-- star glint -->
    <g opacity="0.9">
      <rect x="252" y="246" width="6" height="2" fill="white"/>
      <rect x="254" y="244" width="2" height="6" fill="white"/>
    </g>
  </g>

  <!-- Subtle floor glow sweep -->
  <ellipse cx="256" cy="400" rx="240" ry="40" fill="rgba(110,168,254,0.10)"/>
</svg>
